# generated from PmQm by Jehee Lee
:FULLY-SPECIFIED
:DEGREES
711
root 29.3817 39.7802 -81.5911 174.708 -87.3409 -170.233
RightUpLeg -10.1249 -0.118754 -2.4778
RightLeg 10.0752 5.85328 -0.67233
RightFoot -7.51225 -0.291862 7.18378
RightToes 2.92371e-005 7.89716e-005 -0.000493274
Spine 0.41729 0.738081 2.04638
Spine1 0.876722 1.46166 4.24391
HEad 21.6705 33.7095 -13.2366
LeftShoulder1 -3.88251e-019 -0 -3.92111e-022
LeftArm -35.2667 3.68719 -77.3438
LeftForeArm 23.347 2.14193 1.75877
LeftHand -0.701383 -4.50529 8.50831
RightShoulder 7.45443e-017 -2.42657e-020 1.96277e-018
RightArm -24.0979 -11.3766 64.8488
RightForeArm 36.1636 3.36917 8.01281
RightHand -1.06487 10.3031 -8.24809
LeftUpLeg -15.1548 -2.09688 3.31019
LeftLeg 11.8779 -35.4535 -3.94167
LeftFoot -4.18623 0.216105 -3.03081
LeftToes 3.91355e-005 3.11907e-005 -4.10385e-006
712
root 29.8067 39.9084 -82.4232 24.2544 -85.4201 -19.311
RightUpLeg -9.30866 -0.464191 -1.26793
RightLeg 8.07491 -0.649134 -1.86433
RightFoot -6.24974 -0.32939 6.43758
RightToes 2.92371e-005 7.89716e-005 -0.000493274
Spine 0.316504 0.64822 2.03393
Spine1 0.667746 1.32717 4.55361
HEad 21.586 32.0905 -13.011
LeftShoulder1 -3.88251e-019 -0 -3.92111e-022
LeftArm -35.4137 5.7511 -76.8281
LeftForeArm 24.402 2.12834 1.60024
LeftHand -0.696303 -4.46479 8.48163
RightShoulder 7.45443e-017 -2.42657e-020 1.96277e-018
RightArm -24.7267 -11.0175 63.3734
RightForeArm 35.7996 2.64182 6.85115
RightHand -1.13802 10.188 -8.84723
LeftUpLeg -15.3279 1.40168 2.55107
LeftLeg 6.95913 -38.0911 -1.48178
LeftFoot -0.873651 0.373755 -4.02839
LeftToes 3.91355e-005 3.11907e-005 -4.10385e-006
713
root 30.1313 39.9489 -83.1856 9.13794 -78.9707 -4.13654
RightUpLeg -8.69051 -0.170136 -0.0974315
RightLeg 7.1861 -7.44481 -2.74008
RightFoot -5.68492 -0.328008 5.84735
RightToes 2.92371e-005 7.89716e-005 -0.000493274
Spine 0.338831 0.688448 2.21499
Spine1 0.712664 1.41705 4.98005
HEad 21.6063 29.9902 -12.7736
LeftShoulder1 -3.88251e-019 -0 -3.92111e-022
LeftArm -35.9428 7.56506 -76.4727
LeftForeArm 24.6107 2.1143 1.82419
LeftHand -0.723524 -4.47391 8.79218
RightShoulder 7.45443e-017 -2.42657e-020 1.96277e-018
RightArm -25.6812 -10.6903 62.1825
RightForeArm 34.736 1.45245 4.77867
RightHand -1.11312 9.80209 -8.86703
LeftUpLeg -15.861 1.55404 2.7237
LeftLeg 4.33067 -31.836 0.199266
LeftFoot 0.953172 0.27418 -2.61692
LeftToes 3.91355e-005 3.11907e-005 -4.10385e-006
714
root 30.4231 39.9966 -83.8726 7.76564 -73.3277 -2.94806
RightUpLeg -8.19682 0.270564 0.884282
RightLeg 6.60439 -13.4133 -3.4869
RightFoot -5.20696 -0.318701 5.28239
RightToes 2.92371e-005 7.89716e-005 -0.000493274
Spine 0.469683 0.981841 2.32689
Spine1 0.985833 1.99918 5.18944
HEad 21.7583 27.891 -12.7142
LeftShoulder1 -3.88251e-019 -0 -3.92111e-022
LeftArm -36.5985 9.24593 -76.2465
LeftForeArm 23.662 2.12244 2.13276
LeftHand -0.756395 -4.34903 9.28901
RightShoulder 7.45443e-017 -2.42657e-020 1.96277e-018
RightArm -26.785 -10.3549 61.2881
RightForeArm 34.2587 -0.0794129 2.32501
RightHand -0.933869 9.37984 -7.70201
LeftUpLeg -16.4374 1.63538 3.01471
LeftLeg 2.68095 -20.6566 1.60719
LeftFoot 1.74065 -0.159255 1.28561
LeftToes 3.91355e-005 3.11907e-005 -4.10385e-006
715
root 30.6909 40.0152 -84.458 6.48386 -68.4945 -1.95715
RightUpLeg -8.16195 0.560629 1.4458
RightLeg 6.93542 -18.3547 -4.04821
RightFoot -4.92796 -0.289535 4.56569
RightToes 2.92371e-005 7.89716e-005 -0.000493274
Spine 0.685361 1.40805 2.32028
Spine1 1.43331 2.85697 5.2686
HEad 21.5398 26.1312 -13.1018
LeftShoulder1 -3.88251e-019 -0 -3.92111e-022
LeftArm -37.1234 11.0646 -76.0785
LeftForeArm 22.4945 2.14539 2.13576
LeftHand -0.732879 -4.04968 9.27716
RightShoulder 7.45443e-017 -2.42657e-020 1.96277e-018
RightArm -27.4872 -9.92906 60.5955
RightForeArm 34.7409 -1.34776 0.556721
RightHand -0.851895 8.93959 -7.26401
LeftUpLeg -17.0668 2.02973 3.50283
LeftLeg 1.54037 -11.2007 2.01598
LeftFoot 1.47686 -0.461929 4.03117
LeftToes 3.91355e-005 3.11907e-005 -4.10385e-006
716
root 30.8814 39.9611 -84.9506 5.43677 -63.8117 -1.57892
RightUpLeg -8.16408 0.707875 1.89065
RightLeg 8.39496 -23.0061 -4.87523
RightFoot -5.23501 -0.249097 3.99964
RightToes 2.92371e-005 7.89716e-005 -0.000493274
Spine 1.03777 1.69947 2.36843
Spine1 2.15459 3.42386 5.44132
HEad 20.7773 24.3775 -13.6611
LeftShoulder1 -3.88251e-019 -0 -3.92111e-022
LeftArm -37.401 12.9542 -75.9019
LeftForeArm 21.693 2.16212 2.06134
LeftHand -0.699405 -3.93902 8.96607
RightShoulder 7.45443e-017 -2.42657e-020 1.96277e-018
RightArm -27.8156 -9.30505 60.2815
RightForeArm 35.026 -1.94591 -0.232269
RightHand -0.980725 8.54468 -8.51691
LeftUpLeg -17.6691 2.51393 4.06089
LeftLeg 1.63292 -4.2261 1.76005
LeftFoot 0.310613 -0.422896 4.12046
LeftToes 3.91355e-005 3.11907e-005 -4.10385e-006
